<?xml version="1.0" encoding="UTF-8" standalone="no"?>
<svg
        version="1.0"
        width="512pt"
        height="512pt"
        viewBox="0 0 512 512"
        preserveAspectRatio="xMidYMid"
        id="svg3"
        xmlns="http://www.w3.org/2000/svg"
        xmlns:svg="http://www.w3.org/2000/svg">
    <defs
            id="defs3" />
    <g
            transform="matrix(0.1,0,0,-0.1,0,512)"
            fill="#000000"
            stroke="none"
            id="g3">
        <path
                d="m 1172,5054 c -47,-24 -91,-78 -104,-130 l -12,-44 H 830 c -248,0 -298,-7 -405,-60 C 281,4750 164,4613 115,4459 L 90,4379 V 2477 C 90,374 85,534 156,390 225,251 378,128 536,84 616,62 950,52 1027,70 c 101,22 174,127 157,222 -9,46 -42,103 -73,125 -49,37 -89,43 -271,43 -106,0 -191,5 -211,11 -56,19 -100,59 -125,113 l -24,51 v 1382 1383 l 2178,2 2177,3 41,22 c 65,35 100,69 128,125 l 26,52 v 381 c 0,416 -3,444 -60,560 -65,134 -199,254 -341,305 -59,22 -82,24 -315,28 l -250,3 -12,44 c -32,121 -165,179 -280,124 -47,-23 -90,-79 -101,-131 l -7,-33 -450,-3 -451,-2 -12,42 c -28,93 -99,148 -191,148 -92,0 -163,-55 -191,-147 l -12,-43 h -211 c -183,0 -216,-3 -251,-19 -148,-67 -151,-271 -6,-348 42,-22 54,-23 255,-23 h 211 l 18,-48 c 22,-65 48,-96 100,-121 114,-55 244,6 277,131 l 11,38 451,-2 451,-3 14,-47 c 54,-187 325,-180 376,9 l 12,44 210,-3 c 209,-3 210,-3 257,-31 31,-18 57,-44 75,-75 l 28,-47 3,-267 3,-268 H 2560 479 l 3,268 3,267 28,47 c 18,31 44,57 75,75 47,28 48,28 257,31 l 210,3 13,-45 c 44,-167 276,-198 360,-47 21,37 22,51 22,282 0,227 -1,246 -21,287 -30,62 -85,95 -163,99 -42,3 -71,-1 -94,-13 z"
                id="path1"
                style="fill:#ffffff;fill-opacity:1" />
        <path
                d="m 4750,3053 c -44,-23 -59,-39 -82,-82 l -28,-53 V 1776 635 l -24,-51 c -25,-54 -69,-94 -125,-113 -20,-6 -105,-11 -211,-11 -182,0 -222,-6 -271,-43 -31,-22 -64,-79 -73,-125 -17,-95 56,-200 157,-222 77,-18 411,-8 491,14 164,46 313,168 384,317 22,46 45,109 52,139 8,40 10,379 8,1237 l -3,1181 -31,39 c -40,50 -81,72 -141,79 -40,5 -57,1 -103,-23 z"
                id="path2"
                style="fill:#ffffff;fill-opacity:1" />
        <path
                d="m 2085,2986 c -16,-8 -44,-29 -61,-47 -42,-45 -319,-420 -339,-458 -30,-59 -13,-152 36,-198 13,-12 132,-88 264,-169 210,-129 246,-148 291,-152 181,-15 257,219 104,322 -54,37 -45,42 88,58 238,28 490,-48 687,-206 161,-128 265,-288 326,-497 27,-95 37,-289 20,-395 C 3460,996 3306,750 3104,613 2578,256 1871,485 1662,1080 c -43,122 -56,218 -49,362 6,134 20,199 73,328 39,95 42,146 15,205 -56,121 -212,152 -309,62 -52,-48 -117,-214 -153,-391 -27,-132 -29,-340 -4,-481 49,-283 190,-544 402,-746 185,-175 402,-288 664,-345 115,-25 387,-26 511,-1 553,111 976,542 1073,1094 21,115 21,341 0,456 -117,663 -712,1145 -1375,1114 -69,-4 -144,-9 -168,-13 l -42,-7 15,36 c 61,147 -87,297 -230,233 z"
                id="path3"
                style="fill:#ffffff;fill-opacity:1" />
    </g>
</svg>
