<?xml version="1.0" standalone="no"?>
<!DOCTYPE svg PUBLIC "-//W3C//DTD SVG 20010904//EN"
 "http://www.w3.org/TR/2001/REC-SVG-20010904/DTD/svg10.dtd">
<svg version="1.0" xmlns="http://www.w3.org/2000/svg"
 width="512.000000pt" height="512.000000pt" viewBox="0 0 512.000000 512.000000"
 preserveAspectRatio="xMidYMid meet">

<g transform="translate(0.000000,512.000000) scale(0.100000,-0.100000)"
fill="#000000" stroke="none">
<path d="M1172 5054 c-47 -24 -91 -78 -104 -130 l-12 -44 -226 0 c-248 0 -298
-7 -405 -60 -144 -70 -261 -207 -310 -361 l-25 -80 0 -1902 c0 -2103 -5 -1943
66 -2087 69 -139 222 -262 380 -306 80 -22 414 -32 491 -14 101 22 174 127
157 222 -9 46 -42 103 -73 125 -49 37 -89 43 -271 43 -106 0 -191 5 -211 11
-56 19 -100 59 -125 113 l-24 51 0 1382 0 1383 2178 2 2177 3 41 22 c65 35
100 69 128 125 l26 52 0 381 c0 416 -3 444 -60 560 -65 134 -199 254 -341 305
-59 22 -82 24 -315 28 l-250 3 -12 44 c-32 121 -165 179 -280 124 -47 -23 -90
-79 -101 -131 l-7 -33 -450 -3 -451 -2 -12 42 c-28 93 -99 148 -191 148 -92 0
-163 -55 -191 -147 l-12 -43 -211 0 c-183 0 -216 -3 -251 -19 -148 -67 -151
-271 -6 -348 42 -22 54 -23 255 -23 l211 0 18 -48 c22 -65 48 -96 100 -121
114 -55 244 6 277 131 l11 38 451 -2 451 -3 14 -47 c54 -187 325 -180 376 9
l12 44 210 -3 c209 -3 210 -3 257 -31 31 -18 57 -44 75 -75 l28 -47 3 -267 3
-268 -2081 0 -2081 0 3 268 3 267 28 47 c18 31 44 57 75 75 47 28 48 28 257
31 l210 3 13 -45 c44 -167 276 -198 360 -47 21 37 22 51 22 282 0 227 -1 246
-21 287 -30 62 -85 95 -163 99 -42 3 -71 -1 -94 -13z"/>
<path d="M4750 3053 c-44 -23 -59 -39 -82 -82 l-28 -53 0 -1142 0 -1141 -24
-51 c-25 -54 -69 -94 -125 -113 -20 -6 -105 -11 -211 -11 -182 0 -222 -6 -271
-43 -31 -22 -64 -79 -73 -125 -17 -95 56 -200 157 -222 77 -18 411 -8 491 14
164 46 313 168 384 317 22 46 45 109 52 139 8 40 10 379 8 1237 l-3 1181 -31
39 c-40 50 -81 72 -141 79 -40 5 -57 1 -103 -23z"/>
<path d="M2085 2986 c-16 -8 -44 -29 -61 -47 -42 -45 -319 -420 -339 -458 -30
-59 -13 -152 36 -198 13 -12 132 -88 264 -169 210 -129 246 -148 291 -152 181
-15 257 219 104 322 -54 37 -45 42 88 58 238 28 490 -48 687 -206 161 -128
265 -288 326 -497 27 -95 37 -289 20 -395 -41 -248 -195 -494 -397 -631 -526
-357 -1233 -128 -1442 467 -43 122 -56 218 -49 362 6 134 20 199 73 328 39 95
42 146 15 205 -56 121 -212 152 -309 62 -52 -48 -117 -214 -153 -391 -27 -132
-29 -340 -4 -481 49 -283 190 -544 402 -746 185 -175 402 -288 664 -345 115
-25 387 -26 511 -1 553 111 976 542 1073 1094 21 115 21 341 0 456 -117 663
-712 1145 -1375 1114 -69 -4 -144 -9 -168 -13 l-42 -7 15 36 c61 147 -87 297
-230 233z"/>
</g>
</svg>
